<svg xmlns="http://www.w3.org/2000/svg" version="1.1" xmlns:xlink="http://www.w3.org/1999/xlink" xmlns:svgjs="http://svgjs.dev/svgjs" width="1440" height="560" preserveAspectRatio="none" viewBox="0 0 1440 560"><g mask="url(&quot;#SvgjsMask2375&quot;)" fill="none"><rect width="1440" height="560" x="0" y="0" fill="url(&quot;#SvgjsLinearGradient2376&quot;)"></rect><path d="M49.63 -8.66L114.58 28.84L114.58 103.84L49.63 141.34L-15.32 103.84L-15.32 28.84zM49.63 441.34L114.58 478.84L114.58 553.84L49.63 591.34L-15.32 553.84L-15.32 478.84zM374.4 328.84L439.35 366.34L439.35 441.34L374.4 478.84L309.44 441.34L309.44 366.34zM504.31 103.84L569.26 141.34L569.26 216.34L504.31 253.84L439.35 216.34L439.35 141.34zM569.26 216.34L634.21 253.84L634.21 328.84L569.26 366.34L504.31 328.84L504.31 253.84zM764.12 328.84L829.08 366.34L829.08 441.34L764.12 478.84L699.17 441.34L699.17 366.34zM764.12 553.84L829.08 591.34L829.08 666.34L764.12 703.84L699.17 666.34L699.17 591.34zM894.03 328.84L958.98 366.34L958.98 441.34L894.03 478.84L829.07 441.34L829.07 366.34zM1023.94 328.84L1088.89 366.34L1088.89 441.34L1023.94 478.84L958.98 441.34L958.98 366.34zM1023.94 553.84L1088.89 591.34L1088.89 666.34L1023.94 703.84L958.98 666.34L958.98 591.34z" stroke="rgba(255, 255, 255, 1)" stroke-width="2"></path><path d="M42.13 -8.66 a7.5 7.5 0 1 0 15 0 a7.5 7.5 0 1 0 -15 0zM107.08 28.84 a7.5 7.5 0 1 0 15 0 a7.5 7.5 0 1 0 -15 0zM107.08 103.84 a7.5 7.5 0 1 0 15 0 a7.5 7.5 0 1 0 -15 0zM42.13 141.34 a7.5 7.5 0 1 0 15 0 a7.5 7.5 0 1 0 -15 0zM-22.82 103.84 a7.5 7.5 0 1 0 15 0 a7.5 7.5 0 1 0 -15 0zM-22.82 28.84 a7.5 7.5 0 1 0 15 0 a7.5 7.5 0 1 0 -15 0zM42.13 441.34 a7.5 7.5 0 1 0 15 0 a7.5 7.5 0 1 0 -15 0zM107.08 478.84 a7.5 7.5 0 1 0 15 0 a7.5 7.5 0 1 0 -15 0zM107.08 553.84 a7.5 7.5 0 1 0 15 0 a7.5 7.5 0 1 0 -15 0zM42.13 591.34 a7.5 7.5 0 1 0 15 0 a7.5 7.5 0 1 0 -15 0zM-22.82 553.84 a7.5 7.5 0 1 0 15 0 a7.5 7.5 0 1 0 -15 0zM-22.82 478.84 a7.5 7.5 0 1 0 15 0 a7.5 7.5 0 1 0 -15 0zM366.9 328.84 a7.5 7.5 0 1 0 15 0 a7.5 7.5 0 1 0 -15 0zM431.85 366.34 a7.5 7.5 0 1 0 15 0 a7.5 7.5 0 1 0 -15 0zM431.85 441.34 a7.5 7.5 0 1 0 15 0 a7.5 7.5 0 1 0 -15 0zM366.9 478.84 a7.5 7.5 0 1 0 15 0 a7.5 7.5 0 1 0 -15 0zM301.94 441.34 a7.5 7.5 0 1 0 15 0 a7.5 7.5 0 1 0 -15 0zM301.94 366.34 a7.5 7.5 0 1 0 15 0 a7.5 7.5 0 1 0 -15 0zM496.81 103.84 a7.5 7.5 0 1 0 15 0 a7.5 7.5 0 1 0 -15 0zM561.76 141.34 a7.5 7.5 0 1 0 15 0 a7.5 7.5 0 1 0 -15 0zM561.76 216.34 a7.5 7.5 0 1 0 15 0 a7.5 7.5 0 1 0 -15 0zM496.81 253.84 a7.5 7.5 0 1 0 15 0 a7.5 7.5 0 1 0 -15 0zM431.85 216.34 a7.5 7.5 0 1 0 15 0 a7.5 7.5 0 1 0 -15 0zM431.85 141.34 a7.5 7.5 0 1 0 15 0 a7.5 7.5 0 1 0 -15 0zM626.71 253.84 a7.5 7.5 0 1 0 15 0 a7.5 7.5 0 1 0 -15 0zM626.71 328.84 a7.5 7.5 0 1 0 15 0 a7.5 7.5 0 1 0 -15 0zM561.76 366.34 a7.5 7.5 0 1 0 15 0 a7.5 7.5 0 1 0 -15 0zM496.81 328.84 a7.5 7.5 0 1 0 15 0 a7.5 7.5 0 1 0 -15 0zM756.62 328.84 a7.5 7.5 0 1 0 15 0 a7.5 7.5 0 1 0 -15 0zM821.58 366.34 a7.5 7.5 0 1 0 15 0 a7.5 7.5 0 1 0 -15 0zM821.58 441.34 a7.5 7.5 0 1 0 15 0 a7.5 7.5 0 1 0 -15 0zM756.62 478.84 a7.5 7.5 0 1 0 15 0 a7.5 7.5 0 1 0 -15 0zM691.67 441.34 a7.5 7.5 0 1 0 15 0 a7.5 7.5 0 1 0 -15 0zM691.67 366.34 a7.5 7.5 0 1 0 15 0 a7.5 7.5 0 1 0 -15 0zM756.62 553.84 a7.5 7.5 0 1 0 15 0 a7.5 7.5 0 1 0 -15 0zM821.58 591.34 a7.5 7.5 0 1 0 15 0 a7.5 7.5 0 1 0 -15 0zM821.58 666.34 a7.5 7.5 0 1 0 15 0 a7.5 7.5 0 1 0 -15 0zM756.62 703.84 a7.5 7.5 0 1 0 15 0 a7.5 7.5 0 1 0 -15 0zM691.67 666.34 a7.5 7.5 0 1 0 15 0 a7.5 7.5 0 1 0 -15 0zM691.67 591.34 a7.5 7.5 0 1 0 15 0 a7.5 7.5 0 1 0 -15 0zM886.53 328.84 a7.5 7.5 0 1 0 15 0 a7.5 7.5 0 1 0 -15 0zM951.48 366.34 a7.5 7.5 0 1 0 15 0 a7.5 7.5 0 1 0 -15 0zM951.48 441.34 a7.5 7.5 0 1 0 15 0 a7.5 7.5 0 1 0 -15 0zM886.53 478.84 a7.5 7.5 0 1 0 15 0 a7.5 7.5 0 1 0 -15 0zM821.57 441.34 a7.5 7.5 0 1 0 15 0 a7.5 7.5 0 1 0 -15 0zM821.57 366.34 a7.5 7.5 0 1 0 15 0 a7.5 7.5 0 1 0 -15 0zM1016.44 328.84 a7.5 7.5 0 1 0 15 0 a7.5 7.5 0 1 0 -15 0zM1081.39 366.34 a7.5 7.5 0 1 0 15 0 a7.5 7.5 0 1 0 -15 0zM1081.39 441.34 a7.5 7.5 0 1 0 15 0 a7.5 7.5 0 1 0 -15 0zM1016.44 478.84 a7.5 7.5 0 1 0 15 0 a7.5 7.5 0 1 0 -15 0zM1016.44 553.84 a7.5 7.5 0 1 0 15 0 a7.5 7.5 0 1 0 -15 0zM1081.39 591.34 a7.5 7.5 0 1 0 15 0 a7.5 7.5 0 1 0 -15 0zM1081.39 666.34 a7.5 7.5 0 1 0 15 0 a7.5 7.5 0 1 0 -15 0zM1016.44 703.84 a7.5 7.5 0 1 0 15 0 a7.5 7.5 0 1 0 -15 0zM951.48 666.34 a7.5 7.5 0 1 0 15 0 a7.5 7.5 0 1 0 -15 0zM951.48 591.34 a7.5 7.5 0 1 0 15 0 a7.5 7.5 0 1 0 -15 0z" fill="rgba(255, 255, 255, 1)"></path><path d="M32.76 -31.77L74.33 -7.77L74.33 40.23L32.76 64.23L-8.81 40.23L-8.81 -7.77zM157.47 40.23L199.04 64.23L199.04 112.23L157.47 136.23L115.9 112.23L115.9 64.23zM240.61 328.23L282.18 352.23L282.18 400.23L240.61 424.23L199.04 400.23L199.04 352.23zM282.18 544.23L323.75 568.23L323.75 616.23L282.18 640.23L240.61 616.23L240.61 568.23zM365.32 256.23L406.89 280.23L406.89 328.23L365.32 352.23L323.75 328.23L323.75 280.23zM448.46 -31.77L490.03 -7.77L490.03 40.23L448.46 64.23L406.89 40.23L406.89 -7.77zM490.03 40.23L531.6 64.23L531.6 112.23L490.03 136.23L448.46 112.23L448.46 64.23zM490.03 328.23L531.6 352.23L531.6 400.23L490.03 424.23L448.46 400.23L448.46 352.23zM490.03 472.23L531.6 496.23L531.6 544.23L490.03 568.23L448.46 544.23L448.46 496.23zM531.6 -31.77L573.18 -7.77L573.18 40.23L531.6 64.23L490.03 40.23L490.03 -7.77zM531.6 256.23L573.18 280.23L573.18 328.23L531.6 352.23L490.03 328.23L490.03 280.23zM656.32 472.23L697.89 496.23L697.89 544.23L656.32 568.23L614.75 544.23L614.75 496.23zM739.46 328.23L781.03 352.23L781.03 400.23L739.46 424.23L697.89 400.23L697.89 352.23zM697.89 400.23L739.46 424.23L739.46 472.23L697.89 496.23L656.32 472.23L656.32 424.23zM781.03 400.23L822.6 424.23L822.6 472.23L781.03 496.23L739.46 472.23L739.46 424.23zM864.17 256.23L905.74 280.23L905.74 328.23L864.17 352.23L822.6 328.23L822.6 280.23zM947.31 -31.77L988.88 -7.77L988.88 40.23L947.31 64.23L905.74 40.23L905.74 -7.77zM988.88 40.23L1030.45 64.23L1030.45 112.23L988.88 136.23L947.31 112.23L947.31 64.23zM1155.16 40.23L1196.73 64.23L1196.73 112.23L1155.16 136.23L1113.59 112.23L1113.59 64.23zM1196.73 400.23L1238.3 424.23L1238.3 472.23L1196.73 496.23L1155.16 472.23L1155.16 424.23zM1279.87 256.23L1321.44 280.23L1321.44 328.23L1279.87 352.23L1238.3 328.23L1238.3 280.23zM1446.15 -31.77L1487.72 -7.77L1487.72 40.23L1446.15 64.23L1404.58 40.23L1404.58 -7.77zM1487.72 184.23L1529.29 208.23L1529.29 256.23L1487.72 280.23L1446.15 256.23L1446.15 208.23z" stroke="rgba(163, 163, 163, 0.93)" stroke-width="2"></path></g><defs><mask id="SvgjsMask2375"><rect width="1440" height="560" fill="#ffffff"></rect></mask><linearGradient x1="15.28%" y1="-39.29%" x2="84.72%" y2="139.29%" gradientUnits="userSpaceOnUse" id="SvgjsLinearGradient2376"><stop stop-color="rgba(92, 126, 96, 1)" offset="0"></stop><stop stop-color="rgba(30, 52, 33, 1)" offset="0.5"></stop><stop stop-color="rgba(0, 0, 0, 1)" offset="1"></stop></linearGradient></defs></svg>