<svg xmlns="http://www.w3.org/2000/svg" version="1.1" xmlns:xlink="http://www.w3.org/1999/xlink" xmlns:svgjs="http://svgjs.dev/svgjs" width="1440" height="560" preserveAspectRatio="none" viewBox="0 0 1440 560"><g mask="url(&quot;#SvgjsMask1503&quot;)" fill="none"><rect width="1440" height="560" x="0" y="0" fill="url(&quot;#SvgjsLinearGradient1504&quot;)"></rect><path d="M259.19 0C291.99 37.81 253.1 72.17 261.45 140C263.51 156.7 266.65 169.06 280 169.06C305.54 169.06 311.04 156.98 339.23 140C381.04 114.82 387.47 119.69 420 84.74C452.63 49.69 433.11 22.05 469.54 0C503.11 -20.32 514.77 0 560 0C630 0 630 0 700 0C750.98 0 757.82 -14.52 801.96 0C827.82 8.51 817.57 26.57 840 46.05C898.14 96.57 911.27 86.12 963.1 140C981.27 158.89 966.07 191.58 980 191.58C997.85 191.58 1026.67 170.69 1026.67 140C1026.67 74.9 956.05 35.92 980 0C1002.72 -34.08 1050 0 1120 0C1190 0 1190 0 1260 0C1330 0 1330 0 1400 0C1470 0 1503.16 -33.16 1540 0C1573.16 29.84 1541.11 63.1 1540 126C1539.88 133.1 1537.54 133.41 1537.54 140C1537.54 141.57 1539.97 140.65 1540 142.33C1541.2 210.65 1540 211.17 1540 280C1540 350 1540 350 1540 420C1540 490 1571.5 521.5 1540 560C1514.23 591.5 1477.98 570.64 1425.45 560C1407.98 556.46 1416.77 531.65 1400 531.65C1355.35 531.65 1351.9 550.02 1302.61 560C1281.9 564.19 1281.3 560 1260 560C1219.16 560 1218.52 564.67 1178.33 560C1148.52 556.53 1143.75 561.39 1120 543.72C1049.7 491.39 1050.26 485.04 990.24 420C980.26 409.18 985.51 405.85 980 392C957.68 335.85 972.01 322.25 934.59 280C902.01 243.22 885 233.95 840 233.95C807.53 233.95 779.66 249.76 779.66 280C779.66 335.29 797.01 358.82 840 405C862.18 428.82 893.6 394.12 910 420C942.72 471.62 958.99 518.53 938.25 560C923.99 588.53 889.13 560 840 560C791.72 560 785.93 573.65 743.45 560C715.93 551.15 719.7 515 700 515C682.97 515 693.07 552.58 670 560C623.07 575.08 615 560 560 560C490 560 490 560 420 560C350 560 350 560 280 560C228.06 560 176.13 583.83 176.13 560C176.13 523.46 218.45 452.2 280 439.25C340.39 426.54 349.49 507.35 420 508.67C489.49 509.97 491.23 478.82 560 444.5C580.07 434.48 592.38 439.98 597.69 420C614.25 357.73 617.45 341.51 603.75 280C598.61 256.92 584.12 260.85 560 250.83C492.24 222.67 477.24 194.47 420 203.64C386.24 209.05 403.94 245.3 378 280C333.94 338.95 331.25 390.94 280 390.94C224.6 390.94 223.91 333.49 164.71 280C153.91 270.24 153.43 264.44 140 264.44C114.82 264.44 110.85 266.46 87.5 280C40.85 307.05 27.34 345.63 0 345.63C-16.41 345.63 0 312.82 0 280C0 210 0 210 0 140C0 70 -35 35 0 0C35 -35 70 0 140 0C199.6 0 231.27 -32.19 259.19 0" stroke="rgba(255, 255, 255, 0.58)" stroke-width="2"></path><path d="M0 471.74C21.82 471.74 76.6 533.34 76.6 560C76.6 577.47 17.8 580.5 0 560C-20.5 536.37 -16.48 471.74 0 471.74" stroke="rgba(255, 255, 255, 0.58)" stroke-width="2"></path><path d="M20.36 140C8.82 131.66 1.96 133.45 0 120C-8.22 63.45 -32.31 27.69 0 0C37.69 -32.31 70 0 140 0C175.94 0 198.45 -23.73 211.89 0C238.09 46.27 239.14 78.87 219.28 140C203.2 189.49 183.74 221.23 140 221.23C84.28 221.23 78.82 182.27 20.36 140" stroke="rgba(255, 255, 255, 0.58)" stroke-width="2"></path><path d="M453.33 140C443.09 83.48 480.16 56.73 523.38 0C533.49 -13.27 541.69 0 560 0C630 0 630 0 700 0C731.95 0 739.51 -16.05 763.91 0C809.51 30 798.2 49.96 840 92.11C867.62 119.96 902.76 116.06 902.76 140C902.76 163.94 871.38 163.94 840 187.89C779.65 233.94 741.91 220.39 719.31 280C697.91 336.45 758.77 359.54 752 420C749.11 445.79 724.45 452.5 700 452.5C680.95 452.5 667.96 441.88 665 420C656.29 355.63 702.94 334.5 676.67 280C650.44 225.61 619.38 239.44 560 202.22C507.71 169.44 461.4 184.59 453.33 140" stroke="rgba(255, 255, 255, 0.58)" stroke-width="2"></path><path d="M1120 112.98C1061.4 81.87 1029.3 34.74 1029.3 0C1029.3 -21.75 1074.65 0 1120 0C1190 0 1190 0 1260 0C1330 0 1330 0 1400 0C1443.34 0 1472.14 -26.72 1486.67 0C1510.21 43.28 1459.76 78.35 1476.14 140C1486.42 178.68 1523.2 163.84 1540 200.67C1555.13 233.84 1540 240.34 1540 280C1540 350 1540 350 1540 420C1540 490 1564.37 514.37 1540 560C1526.98 584.37 1495.59 575.76 1465.23 560C1425.59 539.43 1442.16 502.57 1400 487.34C1339.55 465.51 1329.51 492.09 1260 485.88C1189.51 479.58 1184.38 485.33 1120 462.33C1092.18 452.39 1075.61 445.85 1075.61 420C1075.61 371.16 1096.59 365.9 1120 312.94C1127.53 295.9 1124.8 293.45 1137.5 280C1194.8 219.34 1199.47 223.07 1260 164.71C1272.07 153.07 1282.7 151.38 1282.7 140C1282.7 130.28 1273.8 124.79 1260 122.5C1192.45 111.28 1176.75 143.12 1120 112.98" stroke="rgba(255, 255, 255, 0.58)" stroke-width="2"></path><path d="M233.33 280C233.33 257.55 257.58 235.09 280 235.09C300.75 235.09 319.67 257.55 319.67 280C319.67 302.46 300.75 324.91 280 324.91C257.58 324.91 233.33 302.46 233.33 280" stroke="rgba(255, 255, 255, 0.58)" stroke-width="2"></path><path d="M1400 254.21C1386.51 254.21 1372 267.69 1372 280C1372 291.47 1386.42 301.78 1400 301.78C1412.37 301.78 1423.9 291.39 1423.9 280C1423.9 267.61 1412.46 254.21 1400 254.21" stroke="rgba(255, 255, 255, 0.58)" stroke-width="2"></path><path d="M0 547.83C3.01 547.83 10.57 556.32 10.57 560C10.57 562.41 2.46 562.83 0 560C-2.83 556.74 -2.27 547.83 0 547.83" stroke="rgba(255, 255, 255, 0.58)" stroke-width="2"></path><path d="M213.76 560C213.76 536.7 242.37 483 280 483C328.6 483 386.21 538.72 386.21 560C386.21 577.22 333.11 560 280 560C246.88 560 213.76 575.2 213.76 560" stroke="rgba(255, 255, 255, 0.58)" stroke-width="2"></path><path d="M455.64 560C455.64 540.33 511.56 488.25 560 488.25C597.9 488.25 628.33 538.77 628.33 560C628.33 574.64 594.16 560 560 560C507.82 560 455.64 576.21 455.64 560" stroke="rgba(255, 255, 255, 0.58)" stroke-width="2"></path><path d="M803.79 560C803.79 541.55 821.78 503.24 840 503.24C858.31 503.24 876.84 541.62 876.84 560C876.84 570 858.42 560 840 560C821.89 560 803.79 569.93 803.79 560" stroke="rgba(255, 255, 255, 0.58)" stroke-width="2"></path><path d="M84 140C39.55 101.74 28.22 104.53 0 57.5C-13.78 34.53 -20.38 8.37 0 0C49.62 -20.38 70 0 140 0C152.3 0 161.83 -10.42 164.59 0C180.38 59.58 186.03 75.41 177.11 140C173.74 164.42 160.47 178.02 140 178.02C113.92 178.02 109.55 162 84 140" stroke="rgba(255, 255, 255, 0.58)" stroke-width="2"></path><path d="M536.67 140C536.67 111.59 544.9 105.71 560 74.67C578.96 35.71 571.36 17.84 604.8 0C641.36 -19.5 652.4 0 700 0C712.93 0 725.87 -10.21 725.87 0C725.87 43.88 726.36 64.36 700 108.18C684.26 134.36 672.84 129.89 641.67 140C602.84 152.6 599.59 153.61 560 153.61C547.09 153.61 536.67 151.06 536.67 140" stroke="rgba(255, 255, 255, 0.58)" stroke-width="2"></path><path d="M816.67 140C816.67 139.08 828.61 138.16 840 138.16C841.48 138.16 842.41 139.08 842.41 140C842.41 140.92 841.48 141.84 840 141.84C828.61 141.84 816.67 140.92 816.67 140" stroke="rgba(255, 255, 255, 0.58)" stroke-width="2"></path><path d="M1120 51.58C1090.9 43.63 1078.59 15.86 1078.59 0C1078.59 -9.93 1099.3 0 1120 0C1190 0 1190 0 1260 0C1330 0 1330 0 1400 0C1401.66 0 1403.16 -1.62 1403.33 0C1410.53 68.38 1416.14 71.84 1414.74 140C1414.48 152.89 1408.54 162.11 1400 162.11C1389.82 162.11 1389.64 149.92 1377.3 140C1319.64 93.65 1326.13 72.31 1260 49.58C1197.48 28.1 1181.6 68.42 1120 51.58" stroke="rgba(255, 255, 255, 0.58)" stroke-width="2"></path><path d="M1246.88 280C1246.88 272.3 1253.58 267.65 1260 267.65C1266.14 267.65 1272 272.48 1272 280C1272 296.16 1266.25 315 1260 315C1253.69 315 1246.88 295.97 1246.88 280" stroke="rgba(255, 255, 255, 0.58)" stroke-width="2"></path><path d="M1509.27 280C1523.35 267.88 1530.18 259 1540 259C1545.54 259 1540 269.5 1540 280C1540 350 1540 350 1540 420C1540 490 1554 504 1540 560C1536.5 574 1517.75 570.65 1505 560C1447.75 512.17 1460.7 488.31 1400 443.04C1366.83 418.31 1317.27 435.32 1317.27 420C1317.27 403.58 1363.15 406.43 1400 379.56C1459.15 336.43 1453.35 328.16 1509.27 280" stroke="rgba(255, 255, 255, 0.58)" stroke-width="2"></path><path d="M251.4 560C251.4 549.94 263.75 526.75 280 526.75C300.98 526.75 325.86 550.81 325.86 560C325.86 567.44 302.93 560 280 560C265.7 560 251.4 566.56 251.4 560" stroke="rgba(255, 255, 255, 0.58)" stroke-width="2"></path><path d="M519.27 560C519.27 552.32 541.09 532 560 532C574.79 532 586.67 551.71 586.67 560C586.67 565.71 573.34 560 560 560C539.63 560 519.27 566.32 519.27 560" stroke="rgba(255, 255, 255, 0.58)" stroke-width="2"></path></g><defs><mask id="SvgjsMask1503"><rect width="1440" height="560" fill="#ffffff"></rect></mask><linearGradient x1="50%" y1="100%" x2="50%" y2="0%" gradientUnits="userSpaceOnUse" id="SvgjsLinearGradient1504"><stop stop-color="rgba(0, 3, 6, 1)" offset="0"></stop><stop stop-color="rgba(60, 98, 85, 1)" offset="1"></stop></linearGradient></defs></svg>