<svg xmlns="http://www.w3.org/2000/svg" version="1.1" xmlns:xlink="http://www.w3.org/1999/xlink" xmlns:svgjs="http://svgjs.dev/svgjs" width="1440" height="560" preserveAspectRatio="none" viewBox="0 0 1440 560"><g mask="url(&quot;#SvgjsMask1139&quot;)" fill="none"><rect width="1440" height="560" x="0" y="0" fill="rgba(60, 98, 85, 1)"></rect><path d="M0,450.618C81.014,432.966,130.723,356.733,201.497,313.536C274.572,268.934,377.557,265.845,422.305,192.86C467.674,118.863,457.48,20.828,431.795,-62.083C408.024,-138.817,329.264,-180.096,285.833,-247.676C232.328,-330.932,239.698,-466.746,147.927,-503.791C58.283,-539.977,-28.194,-439.154,-120.938,-411.877C-213.624,-384.616,-334.372,-417.558,-396.584,-343.642C-458.894,-269.61,-402.924,-155.69,-417.122,-59.973C-431.41,36.354,-509.368,126.372,-480.078,219.244C-450.432,313.242,-355.906,372.853,-267.118,415.644C-184.551,455.437,-89.555,470.131,0,450.618" fill="#2d4a40"></path><path d="M1440 913.335C1503.456 899.117 1544.462 842.653 1597.196 804.602 1646.51 769.019 1717.8310000000001 753.624 1739.88 696.951 1761.886 640.391 1709.761 582.207 1707.315 521.566 1704.453 450.615 1761.76 373.949 1724.414 313.554 1687.895 254.495 1599.835 262.042 1533.718 240.825 1465.635 218.97699999999998 1396.601 159.836 1330.522 187.154 1263.452 214.882 1266.686 313.83799999999997 1220.9 370.149 1177.281 423.79499999999996 1085.482 439.371 1070.557 506.882 1055.732 573.94 1123.0520000000001 629.283 1149.612 692.616 1177.272 758.573 1172.978 843.613 1229.919 886.893 1287.271 930.486 1369.704 929.085 1440 913.335" fill="#4b7b6a"></path></g><defs><mask id="SvgjsMask1139"><rect width="1440" height="560" fill="#ffffff"></rect></mask></defs></svg>